<?xml version="1.0" encoding="utf-8"?>
<!-- Generator: Adobe Illustrator 15.0.0, SVG Export Plug-In . SVG Version: 6.00 Build 0)  -->
<!DOCTYPE svg PUBLIC "-//W3C//DTD SVG 1.1//EN" "http://www.w3.org/Graphics/SVG/1.1/DTD/svg11.dtd">
<svg version="1.1" id="Layer_1" xmlns="http://www.w3.org/2000/svg" xmlns:xlink="http://www.w3.org/1999/xlink" x="0px" y="0px"
	 width="59.547px" height="50px" viewBox="0 0 59.547 50" enable-background="new 0 0 59.547 50" xml:space="preserve">
<g>
	<path fill="#654219" d="M12.601,0h34.346c3.465,0,6.615,1.42,8.897,3.703l0.106,0.116c2.22,2.273,3.597,5.379,3.597,8.787V37.4
		c0,3.466-1.42,6.615-3.703,8.896C53.562,48.58,50.411,50,46.946,50H12.601c-3.46,0-6.611-1.42-8.894-3.703H3.702
		C1.42,44.016,0,40.865,0,37.395V12.601c0-3.456,1.414-6.605,3.702-8.893l0.009-0.015C6,1.415,9.145,0,12.601,0L12.601,0z
		 M20.02,14.413h19.512c1.09,0,1.982,0.892,1.982,1.982l0,0c0,1.09-0.893,1.982-1.982,1.982H20.02c-1.09,0-1.982-0.892-1.982-1.982
		l0,0C18.037,15.305,18.93,14.413,20.02,14.413L20.02,14.413L20.02,14.413z M20.02,31.623h19.512c1.09,0,1.982,0.891,1.982,1.98l0,0
		c0,1.092-0.893,1.982-1.982,1.982H20.02c-1.09,0-1.982-0.893-1.982-1.982l0,0C18.037,32.514,18.93,31.623,20.02,31.623
		L20.02,31.623L20.02,31.623z M20.02,23.021h19.512c1.09,0,1.982,0.892,1.982,1.982l0,0c0,1.09-0.893,1.981-1.982,1.981H20.02
		c-1.09,0-1.982-0.892-1.982-1.981l0,0C18.037,23.912,18.93,23.021,20.02,23.021L20.02,23.021L20.02,23.021z M46.951,3.974H12.601
		c-2.375,0-4.532,0.969-6.093,2.53l-0.01,0.01c-1.556,1.556-2.524,3.712-2.524,6.087v24.793c0,2.371,0.974,4.526,2.534,6.088
		l-0.004,0.004c1.564,1.562,3.722,2.535,6.092,2.535h34.346c2.365,0,4.521-0.975,6.087-2.539c1.565-1.565,2.54-3.723,2.54-6.088
		V12.601c0-2.326-0.936-4.444-2.443-6.005l-0.092-0.087C51.473,4.948,49.32,3.974,46.951,3.974L46.951,3.974z"/>
</g>
</svg>
